# xmcd
#
# Track frame offsets:
#	150
#	15228
#	32566
#	40650
#	53648
#	66198
#	82500
#	101397
#	124417
#	148325
#	166270
#	184658
#	210003
#	241848
#	255384
#	266298
#	278057
#	286779
#	297885
#	311793
#	327029
#
# Disc length: 4691 seconds
#
# Revision: 0
# Processed by: cddbd v1.5.1PL0 Copyright (c) Steve Scherf et al.
# Submitted via: audiograbber 1.83.01
#
DISCID=0f125115
DTITLE=Gus Eyre - ...a long time down the road
DYEAR=1900
DGENRE=Christian Rock
TTITLE0=Country songs
TTITLE1=How long will good times roll
TTITLE2=Born again
TTITLE3=Love is...
TTITLE4=Sins as scarlet
TTITLE5=Peace
TTITLE6=Old fashioned preacher
TTITLE7=Know the Longing
TTITLE8=Holy river
TTITLE9=Sweet spirit
TTITLE10=Coming home
TTITLE11=The spirit of the Lord
TTITLE12=Who cares..?
TTITLE13=Sunday
TTITLE14=In God whose word i trust
TTITLE15=The eyes of the Lord
TTITLE16=Teach me to do your will
TTITLE17=I lift my eyes to You
TTITLE18=Keep me safe o God
TTITLE19=As the Light is
TTITLE20=Calvary road
EXTD=
EXTT0=
EXTT1=
EXTT2=
EXTT3=
EXTT4=
EXTT5=
EXTT6=
EXTT7=
EXTT8=
EXTT9=
EXTT10=
EXTT11=
EXTT12=
EXTT13=
EXTT14=
EXTT15=
EXTT16=
EXTT17=
EXTT18=
EXTT19=
EXTT20=
PLAYORDER=
